<mxfile host="app.diagrams.net" modified="2023-12-05T21:40:02.966Z" agent="Mozilla/5.0 (Windows NT 10.0; Win64; x64) AppleWebKit/537.36 (KHTML, like Gecko) Chrome/118.0.0.0 Safari/537.36 OPR/104.0.0.0" etag="dew4b4j9y6VsG9LrIAi4" version="22.1.5" type="google">
  <diagram name="Pagina-1" id="tS17y4PTe6Z090fpbAOo">
    <mxGraphModel grid="0" page="1" gridSize="10" guides="1" tooltips="1" connect="1" arrows="1" fold="1" pageScale="1" pageWidth="827" pageHeight="1169" math="0" shadow="0">
      <root>
        <mxCell id="0" />
        <mxCell id="1" parent="0" />
        <mxCell id="EgvHCWXyd4H4XiDitCee-4" value="" style="shape=umlLifeline;perimeter=lifelinePerimeter;whiteSpace=wrap;html=1;container=1;dropTarget=0;collapsible=0;recursiveResize=0;outlineConnect=0;portConstraint=eastwest;newEdgeStyle={&quot;curved&quot;:0,&quot;rounded&quot;:0};participant=umlActor;" vertex="1" parent="1">
          <mxGeometry x="-150" y="47.5" width="20" height="1032.5" as="geometry" />
        </mxCell>
        <mxCell id="EgvHCWXyd4H4XiDitCee-13" value="" style="html=1;points=[[0,0,0,0,5],[0,1,0,0,-5],[1,0,0,0,5],[1,1,0,0,-5]];perimeter=orthogonalPerimeter;outlineConnect=0;targetShapes=umlLifeline;portConstraint=eastwest;newEdgeStyle={&quot;curved&quot;:0,&quot;rounded&quot;:0};" vertex="1" parent="EgvHCWXyd4H4XiDitCee-4">
          <mxGeometry x="5" y="70" width="10" height="920" as="geometry" />
        </mxCell>
        <mxCell id="EgvHCWXyd4H4XiDitCee-5" value=":Number&amp;nbsp;" style="shape=umlLifeline;perimeter=lifelinePerimeter;whiteSpace=wrap;html=1;container=1;dropTarget=0;collapsible=0;recursiveResize=0;outlineConnect=0;portConstraint=eastwest;newEdgeStyle={&quot;curved&quot;:0,&quot;rounded&quot;:0};" vertex="1" parent="1">
          <mxGeometry x="160" y="47.5" width="100" height="145" as="geometry" />
        </mxCell>
        <mxCell id="EgvHCWXyd4H4XiDitCee-28" value="" style="html=1;points=[[0,0,0,0,5],[0,1,0,0,-5],[1,0,0,0,5],[1,1,0,0,-5]];perimeter=orthogonalPerimeter;outlineConnect=0;targetShapes=umlLifeline;portConstraint=eastwest;newEdgeStyle={&quot;curved&quot;:0,&quot;rounded&quot;:0};" vertex="1" parent="EgvHCWXyd4H4XiDitCee-5">
          <mxGeometry x="45" y="92.5" width="10" height="25" as="geometry" />
        </mxCell>
        <mxCell id="EgvHCWXyd4H4XiDitCee-7" value=":InvalidArgException" style="shape=umlLifeline;perimeter=lifelinePerimeter;whiteSpace=wrap;html=1;container=1;dropTarget=0;collapsible=0;recursiveResize=0;outlineConnect=0;portConstraint=eastwest;newEdgeStyle={&quot;curved&quot;:0,&quot;rounded&quot;:0};" vertex="1" parent="1">
          <mxGeometry x="340" y="250" width="133" height="140" as="geometry" />
        </mxCell>
        <mxCell id="zJyixio0Ko9ErSG8nnBo-5" value="" style="html=1;points=[[0,0,0,0,5],[0,1,0,0,-5],[1,0,0,0,5],[1,1,0,0,-5]];perimeter=orthogonalPerimeter;outlineConnect=0;targetShapes=umlLifeline;portConstraint=eastwest;newEdgeStyle={&quot;curved&quot;:0,&quot;rounded&quot;:0};" vertex="1" parent="EgvHCWXyd4H4XiDitCee-7">
          <mxGeometry x="61.5" y="60" width="10" height="60" as="geometry" />
        </mxCell>
        <mxCell id="EgvHCWXyd4H4XiDitCee-9" value=":FullStackException" style="shape=umlLifeline;perimeter=lifelinePerimeter;whiteSpace=wrap;html=1;container=1;dropTarget=0;collapsible=0;recursiveResize=0;outlineConnect=0;portConstraint=eastwest;newEdgeStyle={&quot;curved&quot;:0,&quot;rounded&quot;:0};" vertex="1" parent="1">
          <mxGeometry x="817.75" y="530" width="120" height="140" as="geometry" />
        </mxCell>
        <mxCell id="zJyixio0Ko9ErSG8nnBo-3" value="" style="html=1;points=[[0,0,0,0,5],[0,1,0,0,-5],[1,0,0,0,5],[1,1,0,0,-5]];perimeter=orthogonalPerimeter;outlineConnect=0;targetShapes=umlLifeline;portConstraint=eastwest;newEdgeStyle={&quot;curved&quot;:0,&quot;rounded&quot;:0};" vertex="1" parent="EgvHCWXyd4H4XiDitCee-9">
          <mxGeometry x="56.25" y="70" width="7.5" height="50" as="geometry" />
        </mxCell>
        <mxCell id="EgvHCWXyd4H4XiDitCee-10" value=":StackCalc" style="shape=umlLifeline;perimeter=lifelinePerimeter;whiteSpace=wrap;html=1;container=1;dropTarget=0;collapsible=0;recursiveResize=0;outlineConnect=0;portConstraint=eastwest;newEdgeStyle={&quot;curved&quot;:0,&quot;rounded&quot;:0};" vertex="1" parent="1">
          <mxGeometry x="570" y="70" width="100" height="1010" as="geometry" />
        </mxCell>
        <mxCell id="zJyixio0Ko9ErSG8nnBo-2" value="" style="html=1;points=[[0,0,0,0,5],[0,1,0,0,-5],[1,0,0,0,5],[1,1,0,0,-5]];perimeter=orthogonalPerimeter;outlineConnect=0;targetShapes=umlLifeline;portConstraint=eastwest;newEdgeStyle={&quot;curved&quot;:0,&quot;rounded&quot;:0};" vertex="1" parent="EgvHCWXyd4H4XiDitCee-10">
          <mxGeometry x="45" y="70" width="10" height="900" as="geometry" />
        </mxCell>
        <mxCell id="EgvHCWXyd4H4XiDitCee-14" value="" style="endArrow=open;endFill=1;endSize=12;html=1;rounded=0;" edge="1" parent="1" target="EgvHCWXyd4H4XiDitCee-10">
          <mxGeometry width="160" relative="1" as="geometry">
            <mxPoint x="15" y="830" as="sourcePoint" />
            <mxPoint x="344.9999999999998" y="830" as="targetPoint" />
            <Array as="points">
              <mxPoint x="185.5" y="830" />
            </Array>
          </mxGeometry>
        </mxCell>
        <mxCell id="EgvHCWXyd4H4XiDitCee-16" value="" style="endArrow=open;endFill=1;endSize=12;html=1;rounded=0;" edge="1" parent="1" target="EgvHCWXyd4H4XiDitCee-9">
          <mxGeometry width="160" relative="1" as="geometry">
            <mxPoint x="620" y="600" as="sourcePoint" />
            <mxPoint x="800.75" y="560" as="targetPoint" />
            <Array as="points">
              <mxPoint x="750.75" y="600" />
            </Array>
          </mxGeometry>
        </mxCell>
        <mxCell id="EgvHCWXyd4H4XiDitCee-22" value="&amp;nbsp; FullStackException()&amp;nbsp;&amp;nbsp;" style="text;strokeColor=none;align=center;fillColor=none;html=1;verticalAlign=middle;whiteSpace=wrap;rounded=0;" vertex="1" parent="1">
          <mxGeometry x="697.75" y="570" width="120" height="20" as="geometry" />
        </mxCell>
        <mxCell id="EgvHCWXyd4H4XiDitCee-24" value="&amp;nbsp; &amp;nbsp;InvalidArgException(String)&amp;nbsp;&amp;nbsp;" style="text;strokeColor=none;align=center;fillColor=none;html=1;verticalAlign=middle;whiteSpace=wrap;rounded=0;" vertex="1" parent="1">
          <mxGeometry x="30" y="290" width="200" height="30" as="geometry" />
        </mxCell>
        <mxCell id="zJyixio0Ko9ErSG8nnBo-1" value="push()" style="text;strokeColor=none;align=center;fillColor=none;html=1;verticalAlign=middle;whiteSpace=wrap;rounded=0;" vertex="1" parent="1">
          <mxGeometry x="60" y="800" width="60" height="30" as="geometry" />
        </mxCell>
        <mxCell id="gn6MBJMeK8ETk3090O2W-1" value="" style="endArrow=open;endFill=1;endSize=12;html=1;rounded=0;entryX=0;entryY=0;entryDx=0;entryDy=5;entryPerimeter=0;" edge="1" parent="1">
          <mxGeometry width="160" relative="1" as="geometry">
            <mxPoint x="17.22736842105249" y="140" as="sourcePoint" />
            <mxPoint x="202.78" y="140" as="targetPoint" />
            <Array as="points" />
          </mxGeometry>
        </mxCell>
        <mxCell id="gn6MBJMeK8ETk3090O2W-2" value="Number()" style="text;strokeColor=none;align=center;fillColor=none;html=1;verticalAlign=middle;whiteSpace=wrap;rounded=0;" vertex="1" parent="1">
          <mxGeometry x="80" y="110" width="60" height="30" as="geometry" />
        </mxCell>
        <mxCell id="AN56VZWkjqOSF5GBhgSw-2" value=":Calculator" style="shape=umlLifeline;perimeter=lifelinePerimeter;whiteSpace=wrap;html=1;container=1;dropTarget=0;collapsible=0;recursiveResize=0;outlineConnect=0;portConstraint=eastwest;newEdgeStyle={&quot;curved&quot;:0,&quot;rounded&quot;:0};" vertex="1" parent="1">
          <mxGeometry x="-30" y="47.5" width="100" height="1032.5" as="geometry" />
        </mxCell>
        <mxCell id="AN56VZWkjqOSF5GBhgSw-8" value="" style="html=1;points=[[0,0,0,0,5],[0,1,0,0,-5],[1,0,0,0,5],[1,1,0,0,-5]];perimeter=orthogonalPerimeter;outlineConnect=0;targetShapes=umlLifeline;portConstraint=eastwest;newEdgeStyle={&quot;curved&quot;:0,&quot;rounded&quot;:0};" vertex="1" parent="AN56VZWkjqOSF5GBhgSw-2">
          <mxGeometry x="45" y="62.5" width="10" height="90" as="geometry" />
        </mxCell>
        <mxCell id="AN56VZWkjqOSF5GBhgSw-4" value="" style="endArrow=open;endFill=1;endSize=12;html=1;rounded=0;" edge="1" parent="1">
          <mxGeometry width="160" relative="1" as="geometry">
            <mxPoint x="-135" y="120" as="sourcePoint" />
            <mxPoint x="19.5" y="120" as="targetPoint" />
          </mxGeometry>
        </mxCell>
        <mxCell id="AN56VZWkjqOSF5GBhgSw-5" value="error" style="html=1;verticalAlign=bottom;endArrow=open;dashed=1;endSize=8;curved=0;rounded=0;" edge="1" parent="1">
          <mxGeometry relative="1" as="geometry">
            <mxPoint x="877.25" y="650" as="sourcePoint" />
            <mxPoint x="625.75" y="650" as="targetPoint" />
          </mxGeometry>
        </mxCell>
        <mxCell id="AN56VZWkjqOSF5GBhgSw-6" value="error&amp;nbsp;&amp;nbsp;" style="html=1;verticalAlign=bottom;endArrow=open;dashed=1;endSize=8;curved=0;rounded=0;" edge="1" parent="1" target="AN56VZWkjqOSF5GBhgSw-16">
          <mxGeometry relative="1" as="geometry">
            <mxPoint x="610.5" y="650" as="sourcePoint" />
            <mxPoint x="40" y="650" as="targetPoint" />
          </mxGeometry>
        </mxCell>
        <mxCell id="AN56VZWkjqOSF5GBhgSw-7" value="error" style="html=1;verticalAlign=bottom;endArrow=open;dashed=1;endSize=8;curved=0;rounded=0;" edge="1" parent="1" source="EgvHCWXyd4H4XiDitCee-7">
          <mxGeometry relative="1" as="geometry">
            <mxPoint x="350" y="370" as="sourcePoint" />
            <mxPoint x="25" y="370" as="targetPoint" />
          </mxGeometry>
        </mxCell>
        <mxCell id="AN56VZWkjqOSF5GBhgSw-12" value="alt" style="shape=umlFrame;whiteSpace=wrap;html=1;pointerEvents=0;" vertex="1" parent="1">
          <mxGeometry x="-90" y="500" width="1050" height="400" as="geometry" />
        </mxCell>
        <mxCell id="AN56VZWkjqOSF5GBhgSw-13" value="&lt;font style=&quot;font-size: 18px;&quot;&gt;[isFull()]&lt;/font&gt;" style="text;strokeColor=none;align=center;fillColor=none;html=1;verticalAlign=middle;whiteSpace=wrap;rounded=0;" vertex="1" parent="1">
          <mxGeometry x="-10" y="500" width="70" height="40" as="geometry" />
        </mxCell>
        <mxCell id="AN56VZWkjqOSF5GBhgSw-16" value="" style="html=1;points=[[0,0,0,0,5],[0,1,0,0,-5],[1,0,0,0,5],[1,1,0,0,-5]];perimeter=orthogonalPerimeter;outlineConnect=0;targetShapes=umlLifeline;portConstraint=eastwest;newEdgeStyle={&quot;curved&quot;:0,&quot;rounded&quot;:0};" vertex="1" parent="1">
          <mxGeometry x="15" y="540" width="10" height="500" as="geometry" />
        </mxCell>
        <mxCell id="AN56VZWkjqOSF5GBhgSw-19" value="" style="endArrow=open;endFill=1;endSize=12;html=1;rounded=0;" edge="1" parent="1">
          <mxGeometry width="160" relative="1" as="geometry">
            <mxPoint x="25" y="313.95" as="sourcePoint" />
            <mxPoint x="406" y="313.95000000000005" as="targetPoint" />
          </mxGeometry>
        </mxCell>
        <mxCell id="AN56VZWkjqOSF5GBhgSw-20" value="opt" style="shape=umlFrame;whiteSpace=wrap;html=1;pointerEvents=0;" vertex="1" parent="1">
          <mxGeometry x="-80" y="200" width="610" height="200" as="geometry" />
        </mxCell>
        <mxCell id="AN56VZWkjqOSF5GBhgSw-22" value="" style="endArrow=open;endFill=1;endSize=12;html=1;rounded=0;" edge="1" parent="1">
          <mxGeometry width="160" relative="1" as="geometry">
            <mxPoint x="25" y="560.0000000000002" as="sourcePoint" />
            <mxPoint x="615" y="560.0000000000002" as="targetPoint" />
          </mxGeometry>
        </mxCell>
        <mxCell id="AN56VZWkjqOSF5GBhgSw-23" value="isFull()" style="text;strokeColor=none;align=center;fillColor=none;html=1;verticalAlign=middle;whiteSpace=wrap;rounded=0;" vertex="1" parent="1">
          <mxGeometry x="260" y="535" width="60" height="30" as="geometry" />
        </mxCell>
        <mxCell id="AN56VZWkjqOSF5GBhgSw-25" value="" style="line;strokeWidth=1;fillColor=none;align=left;verticalAlign=middle;spacingTop=-1;spacingLeft=3;spacingRight=3;rotatable=0;labelPosition=right;points=[];portConstraint=eastwest;strokeColor=inherit;dashed=1;" vertex="1" parent="1">
          <mxGeometry x="-90" y="710" width="1050" height="8" as="geometry" />
        </mxCell>
        <mxCell id="AN56VZWkjqOSF5GBhgSw-26" value="&lt;font style=&quot;font-size: 18px;&quot;&gt;[invalid argument]&lt;/font&gt;" style="text;strokeColor=none;align=center;fillColor=none;html=1;verticalAlign=middle;whiteSpace=wrap;rounded=0;" vertex="1" parent="1">
          <mxGeometry x="-30" y="200" width="180" height="30" as="geometry" />
        </mxCell>
        <mxCell id="AN56VZWkjqOSF5GBhgSw-27" value="" style="html=1;points=[[0,0,0,0,5],[0,1,0,0,-5],[1,0,0,0,5],[1,1,0,0,-5]];perimeter=orthogonalPerimeter;outlineConnect=0;targetShapes=umlLifeline;portConstraint=eastwest;newEdgeStyle={&quot;curved&quot;:0,&quot;rounded&quot;:0};" vertex="1" parent="1">
          <mxGeometry x="15" y="230" width="10" height="270" as="geometry" />
        </mxCell>
      </root>
    </mxGraphModel>
  </diagram>
</mxfile>
